<svg width="16" height="17" viewBox="0 0 16 17" fill="none" xmlns="http://www.w3.org/2000/svg">
<path fill-rule="evenodd" clip-rule="evenodd" d="M8.16359 14.7311C7.26025 14.7311 6.37959 14.7211 5.50825 14.7031C4.39358 14.6811 3.62225 13.9584 3.49625 12.8171C3.28625 10.9237 2.92692 6.46106 2.92358 6.41639C2.90092 6.14106 3.10625 5.89972 3.38159 5.87772C3.65292 5.87039 3.89825 6.06106 3.92025 6.33572C3.92359 6.38106 4.28225 10.8284 4.49025 12.7071C4.56159 13.3557 4.91158 13.6904 5.52892 13.7031C7.19559 13.7384 8.89625 13.7404 10.7296 13.7071C11.3856 13.6944 11.7403 13.3664 11.8136 12.7024C12.0203 10.8397 12.3803 6.38106 12.3843 6.33572C12.4063 6.06106 12.6496 5.86906 12.9223 5.87772C13.1976 5.90039 13.4029 6.14106 13.3809 6.41639C13.3769 6.46172 13.0156 10.9357 12.8076 12.8124C12.6783 13.9771 11.9089 14.6857 10.7476 14.7071C9.85892 14.7224 9.00159 14.7311 8.16359 14.7311Z" fill="#D00000"/>
<path fill-rule="evenodd" clip-rule="evenodd" d="M13.8053 4.72388H2.5C2.224 4.72388 2 4.49988 2 4.22388C2 3.94788 2.224 3.72388 2.5 3.72388H13.8053C14.0813 3.72388 14.3053 3.94788 14.3053 4.22388C14.3053 4.49988 14.0813 4.72388 13.8053 4.72388Z" fill="#D00000"/>
<path fill-rule="evenodd" clip-rule="evenodd" d="M11.6264 4.72395C10.8677 4.72395 10.2091 4.18328 10.0597 3.43928L9.89774 2.62862C9.86374 2.50528 9.72307 2.39795 9.56307 2.39795H6.74107C6.58107 2.39795 6.4404 2.50528 6.39973 2.65928L6.2444 3.43928C6.09573 4.18328 5.4364 4.72395 4.67773 4.72395C4.40173 4.72395 4.17773 4.49995 4.17773 4.22395C4.17773 3.94795 4.40173 3.72395 4.67773 3.72395C4.96173 3.72395 5.2084 3.52128 5.2644 3.24262L5.4264 2.43195C5.59107 1.81062 6.12907 1.39795 6.74107 1.39795H9.56307C10.1751 1.39795 10.7131 1.81062 10.8711 2.40195L11.0404 3.24262C11.0957 3.52128 11.3424 3.72395 11.6264 3.72395C11.9024 3.72395 12.1264 3.94795 12.1264 4.22395C12.1264 4.49995 11.9024 4.72395 11.6264 4.72395Z" fill="#D00000"/>
</svg>
