<svg width="945" height="171" viewBox="0 0 945 171" fill="none" xmlns="http://www.w3.org/2000/svg">
<path d="M-2.14987 117.603C-16.2351 123.032 -26.799 125.143 -30.3203 125.52V171.891H962.688V2.24023C948.211 14.3043 913.624 37.0752 891.088 31.6464C862.917 24.8603 831.226 25.9913 810.098 31.6464C788.97 37.3014 776.059 45.2184 752.583 46.3494C729.108 47.4804 736.15 41.8254 699.764 38.4324C663.377 35.0394 648.118 67.8385 630.511 76.8866C612.905 85.9346 568.302 83.6726 551.869 76.8866C535.436 70.1005 521.351 67.8385 508.439 67.8385C495.528 67.8385 495.528 75.7556 476.748 76.8866C457.967 78.0176 439.187 66.7075 413.364 67.8385C387.541 68.9695 352.328 90.4586 325.332 91.5896C298.335 92.7206 314.768 85.9346 276.033 83.6726C237.299 81.4106 206.781 110.817 182.132 117.603C157.483 124.389 121.096 109.686 101.142 105.162C81.1877 100.638 62.4074 117.603 47.1484 117.603C31.8894 117.603 15.4567 110.817 -2.14987 117.603Z" fill="#00A700" fill-opacity="0.1" stroke="#00A700" stroke-width="2"/>
</svg>
