<svg width="16" height="17" viewBox="0 0 16 17" fill="none" xmlns="http://www.w3.org/2000/svg">
<path d="M6.33333 4.7312C6.33333 4.36301 6.63181 4.06453 7 4.06453H11C11.3682 4.06453 11.6667 4.36301 11.6667 4.7312C11.6667 5.09939 11.3682 5.39787 11 5.39787H7C6.63181 5.39787 6.33333 5.09939 6.33333 4.7312Z" fill="#8E6447"/>
<path d="M7 7.39787C6.63181 7.39787 6.33333 7.69634 6.33333 8.06453C6.33333 8.43272 6.63181 8.7312 7 8.7312H11C11.3682 8.7312 11.6667 8.43272 11.6667 8.06453C11.6667 7.69634 11.3682 7.39787 11 7.39787H7Z" fill="#8E6447"/>
<path d="M6.33333 11.3979C6.33333 11.0297 6.63181 10.7312 7 10.7312H11C11.3682 10.7312 11.6667 11.0297 11.6667 11.3979C11.6667 11.7661 11.3682 12.0645 11 12.0645H7C6.63181 12.0645 6.33333 11.7661 6.33333 11.3979Z" fill="#8E6447"/>
<path d="M5.66667 4.7312C5.66667 5.0994 5.3682 5.39787 5 5.39787C4.6318 5.39787 4.33333 5.0994 4.33333 4.7312C4.33333 4.363 4.6318 4.06453 5 4.06453C5.3682 4.06453 5.66667 4.363 5.66667 4.7312Z" fill="#8E6447"/>
<path d="M5 8.7312C5.3682 8.7312 5.66667 8.43273 5.66667 8.06453C5.66667 7.69633 5.3682 7.39787 5 7.39787C4.6318 7.39787 4.33333 7.69633 4.33333 8.06453C4.33333 8.43273 4.6318 8.7312 5 8.7312Z" fill="#8E6447"/>
<path d="M5.66667 11.3979C5.66667 11.7661 5.3682 12.0645 5 12.0645C4.6318 12.0645 4.33333 11.7661 4.33333 11.3979C4.33333 11.0297 4.6318 10.7312 5 10.7312C5.3682 10.7312 5.66667 11.0297 5.66667 11.3979Z" fill="#8E6447"/>
<path fill-rule="evenodd" clip-rule="evenodd" d="M2 2.06453C2 1.32815 2.59695 0.731201 3.33333 0.731201H12.6667C13.403 0.731201 14 1.32815 14 2.06453V14.0645C14 14.8009 13.403 15.3979 12.6667 15.3979H3.33333C2.59695 15.3979 2 14.8009 2 14.0645V2.06453ZM12.6667 2.06453H3.33333V14.0645H12.6667V2.06453Z" fill="#8E6447"/>
</svg>
